<?xml version="1.0" encoding="utf-8"?>
<!-- Generator: Adobe Illustrator 16.0.0, SVG Export Plug-In . SVG Version: 6.00 Build 0)  -->
<!DOCTYPE svg PUBLIC "-//W3C//DTD SVG 1.1//EN" "http://www.w3.org/Graphics/SVG/1.1/DTD/svg11.dtd">
<svg version="1.1" id="Layer_1" xmlns="http://www.w3.org/2000/svg" xmlns:xlink="http://www.w3.org/1999/xlink" x="0px" y="0px"
	 width="200px" height="200px" viewBox="0 0 200 200" enable-background="new 0 0 200 200" xml:space="preserve">
<g>
	<path fill="#010101" d="M172.078,8h-104c-0.18,0-0.355,0.032-0.526,0.079c-0.662-0.162-1.37,0.002-1.869,0.488L46.7,27.05
		L26.72,45.532c-0.409,0.378-0.642,0.911-0.642,1.468v143c0,1.104,0.896,2,2,2h144c1.104,0,2-0.896,2-2V10
		C174.078,8.896,173.183,8,172.078,8z M49.453,29.953L65.078,15.5V45H33.999L49.453,29.953z M170.078,188h-140V49h37
		c1.104,0,2-0.896,2-2V12h101V188z"/>
	<path fill="#010101" d="M60.078,73.5c-1.104,0-2,0.896-2,2s0.896,2,2,2h81c1.104,0,2-0.896,2-2s-0.896-2-2-2H60.078z"/>
	<path fill="#010101" d="M141.078,101.5h-81c-1.104,0-2,0.896-2,2s0.896,2,2,2h81c1.104,0,2-0.896,2-2S142.183,101.5,141.078,101.5z
		"/>
	<path fill="#010101" d="M141.078,129.5h-81c-1.104,0-2,0.896-2,2s0.896,2,2,2h81c1.104,0,2-0.896,2-2S142.183,129.5,141.078,129.5z
		"/>
	<path fill="#010101" d="M141.078,157.5h-81c-1.104,0-2,0.896-2,2s0.896,2,2,2h81c1.104,0,2-0.896,2-2S142.183,157.5,141.078,157.5z
		"/>
</g>
</svg>
