<?xml version="1.0" encoding="utf-8"?>
<!-- Generator: Adobe Illustrator 16.0.0, SVG Export Plug-In . SVG Version: 6.00 Build 0)  -->
<!DOCTYPE svg PUBLIC "-//W3C//DTD SVG 1.1//EN" "http://www.w3.org/Graphics/SVG/1.1/DTD/svg11.dtd">
<svg version="1.1" id="Layer_1" xmlns="http://www.w3.org/2000/svg" xmlns:xlink="http://www.w3.org/1999/xlink" x="0px" y="0px"
	 width="200px" height="200px" viewBox="0 0 200 200" enable-background="new 0 0 200 200" xml:space="preserve">
<g>
	<path fill="#231F20" d="M183.164,156.131H16.836c-1.104,0-2-0.896-2-2V43.246c0-1.104,0.896-2,2-2h166.328c1.104,0,2,0.896,2,2
		v110.885C185.164,155.235,184.269,156.131,183.164,156.131z M18.836,152.131h162.328V45.246H18.836V152.131z"/>
	<path fill="#231F20" d="M100,100.688c-0.387,0-0.773-0.112-1.109-0.336L15.727,44.91c-0.733-0.489-1.06-1.4-0.805-2.244
		c0.255-0.843,1.033-1.42,1.914-1.42h166.328c0.881,0,1.659,0.577,1.914,1.42c0.256,0.844-0.071,1.755-0.805,2.244l-83.164,55.442
		C100.773,100.576,100.387,100.688,100,100.688z M23.442,45.246L100,96.284l76.559-51.038H23.442z"/>
	
		<rect x="48.102" y="73.82" transform="matrix(0.7071 0.7071 -0.7071 0.7071 100.139 -0.027)" fill="#231F20" width="4" height="94.09"/>
	
		<rect x="101.621" y="118.865" transform="matrix(0.7071 0.7071 -0.7071 0.7071 129.0084 -69.7223)" fill="#231F20" width="94.09" height="4"/>
</g>
</svg>
