<?xml version="1.0" encoding="utf-8"?>
<!-- Generator: Adobe Illustrator 16.0.0, SVG Export Plug-In . SVG Version: 6.00 Build 0)  -->
<!DOCTYPE svg PUBLIC "-//W3C//DTD SVG 1.1//EN" "http://www.w3.org/Graphics/SVG/1.1/DTD/svg11.dtd">
<svg version="1.1" id="Layer_1" xmlns="http://www.w3.org/2000/svg" xmlns:xlink="http://www.w3.org/1999/xlink" x="0px" y="0px"
	 width="200px" height="200px" viewBox="0 0 200 200" enable-background="new 0 0 200 200" xml:space="preserve">
<g>
	<path fill="#231F20" d="M22.496,69.369c-0.8,0-1.57-0.442-1.952-1.206c-0.539-1.078-0.102-2.387,0.975-2.926
		c2.089-1.044,4.307-1.856,6.592-2.413c1.17-0.287,2.35,0.433,2.635,1.603c0.285,1.17-0.433,2.35-1.603,2.635
		c-1.968,0.479-3.876,1.177-5.673,2.076C23.156,69.294,22.824,69.369,22.496,69.369z"/>
	<path fill="#231F20" d="M124.991,130.099c-0.154,0-0.312-0.017-0.469-0.051c-3.918-0.857-7.863-2.467-11.727-4.779
		c-1.033-0.619-1.369-1.958-0.751-2.991c0.619-1.034,1.96-1.368,2.991-0.751c3.507,2.1,6.915,3.493,10.419,4.261
		c1.177,0.258,1.922,1.42,1.665,2.597C126.896,129.403,125.993,130.099,124.991,130.099z M104.371,118.314
		c-0.528,0-1.059-0.191-1.477-0.577c-2.791-2.574-5.632-5.577-8.442-8.926c-0.775-0.923-0.654-2.299,0.268-3.073
		c0.922-0.773,2.298-0.653,3.072,0.269c2.692,3.207,5.403,6.075,8.058,8.522c0.886,0.817,0.94,2.197,0.125,3.082
		C105.546,118.078,104.96,118.314,104.371,118.314z M88.711,100.133c-0.643,0-1.278-0.282-1.709-0.824
		c-2.537-3.194-5.135-6.214-7.72-8.978c-0.823-0.88-0.777-2.26,0.103-3.082c0.881-0.822,2.261-0.777,3.083,0.103
		c2.665,2.848,5.34,5.958,7.95,9.244c0.749,0.943,0.592,2.315-0.351,3.065C89.665,99.979,89.186,100.133,88.711,100.133z
		 M72.246,82.662c-0.507,0-1.018-0.176-1.431-0.536c-3.089-2.688-6.223-5.08-9.313-7.106c-1.007-0.661-1.288-2.012-0.627-3.02
		c0.661-1.007,2.013-1.287,3.02-0.627c3.254,2.135,6.546,4.646,9.784,7.463c0.908,0.791,1.004,2.168,0.213,3.077
		C73.461,82.408,72.855,82.662,72.246,82.662z M52.121,69.706c-0.278,0-0.561-0.054-0.834-0.167
		c-3.743-1.552-7.442-2.567-10.994-3.017c-1.195-0.152-2.041-1.243-1.89-2.438c0.152-1.195,1.243-2.039,2.438-1.89
		c3.937,0.5,8.014,1.615,12.116,3.315c1.112,0.461,1.64,1.737,1.179,2.85C53.789,69.199,52.977,69.706,52.121,69.706z"/>
	<path fill="#231F20" d="M137.019,130.537c-1.098,0-2.042-0.825-2.165-1.941c-0.132-1.196,0.73-2.274,1.928-2.407
		c0.747-0.082,1.461-0.174,2.144-0.26c1.647-0.209,3.203-0.407,4.6-0.407c1.204,0,2.181,0.977,2.181,2.181
		c0,1.205-0.977,2.181-2.181,2.181c-1.12,0-2.479,0.173-4.05,0.372c-0.704,0.089-1.441,0.183-2.214,0.27
		C137.18,130.533,137.099,130.537,137.019,130.537z"/>
</g>
<path fill="#231F20" d="M189.319,165.467c-0.119,0-0.239-0.01-0.359-0.029l-58.521-9.754l-57.976,9.662
	c-0.235,0.039-0.476,0.04-0.71,0.001l-59.425-9.722c-1.055-0.173-1.829-1.084-1.829-2.152V35.714c0-0.64,0.281-1.248,0.769-1.662
	c0.488-0.414,1.133-0.593,1.764-0.49l59.069,9.664l57.979-9.663c0.238-0.04,0.479-0.04,0.718,0l58.879,9.813
	c1.052,0.175,1.822,1.085,1.822,2.151v117.759c0,0.641-0.282,1.25-0.771,1.664C190.332,165.286,189.831,165.467,189.319,165.467z
	 M14.861,151.62l57.241,9.364l57.979-9.662c0.238-0.041,0.479-0.041,0.718,0l56.34,9.39V47.375l-56.699-9.45l-57.976,9.662
	c-0.235,0.04-0.476,0.04-0.71,0.001l-56.892-9.307V151.62z"/>
<rect x="69.925" y="45.436" fill="#231F20" width="4.361" height="117.758"/>
<rect x="128.259" y="35.714" fill="#231F20" width="4.361" height="117.759"/>
<path fill="#231F20" d="M175.145,141.479c-0.558,0-1.116-0.213-1.542-0.639l-20.717-20.717c-0.852-0.852-0.852-2.231,0-3.084
	c0.852-0.852,2.232-0.852,3.084,0l20.717,20.717c0.852,0.853,0.852,2.232,0,3.084C176.261,141.266,175.702,141.479,175.145,141.479z
	"/>
<path fill="#231F20" d="M154.428,141.479c-0.558,0-1.116-0.213-1.542-0.639c-0.852-0.852-0.852-2.231,0-3.084l20.717-20.717
	c0.853-0.852,2.232-0.852,3.084,0c0.852,0.853,0.852,2.232,0,3.084L155.97,140.84C155.544,141.266,154.985,141.479,154.428,141.479z
	"/>
</svg>
