<?xml version="1.0" encoding="utf-8"?>
<!-- Generator: Adobe Illustrator 16.0.0, SVG Export Plug-In . SVG Version: 6.00 Build 0)  -->
<!DOCTYPE svg PUBLIC "-//W3C//DTD SVG 1.1//EN" "http://www.w3.org/Graphics/SVG/1.1/DTD/svg11.dtd">
<svg version="1.1" id="Layer_1" xmlns="http://www.w3.org/2000/svg" xmlns:xlink="http://www.w3.org/1999/xlink" x="0px" y="0px"
	 width="200px" height="200px" viewBox="0 0 200 200" enable-background="new 0 0 200 200" xml:space="preserve">
<path d="M158.625,31.75H41.375c-9.251,0-16.75,7.499-16.75,16.75s7.499,16.75,16.75,16.75h117.25c9.251,0,16.75-7.499,16.75-16.75
	S167.876,31.75,158.625,31.75z"/>
<path d="M158.625,82H41.375c-9.251,0-16.75,7.499-16.75,16.75s7.499,16.75,16.75,16.75h117.25c9.251,0,16.75-7.499,16.75-16.75
	S167.876,82,158.625,82z"/>
<path d="M158.625,132.25H41.375c-9.251,0-16.75,7.499-16.75,16.75s7.499,16.75,16.75,16.75h117.25c9.251,0,16.75-7.499,16.75-16.75
	S167.876,132.25,158.625,132.25z"/>
</svg>
