<?xml version="1.0" encoding="utf-8"?>
<!-- Generator: Adobe Illustrator 16.0.0, SVG Export Plug-In . SVG Version: 6.00 Build 0)  -->
<!DOCTYPE svg PUBLIC "-//W3C//DTD SVG 1.1//EN" "http://www.w3.org/Graphics/SVG/1.1/DTD/svg11.dtd">
<svg version="1.1" id="Layer_1" xmlns="http://www.w3.org/2000/svg" xmlns:xlink="http://www.w3.org/1999/xlink" x="0px" y="0px"
	 width="200px" height="200px" viewBox="0 0 200 200" enable-background="new 0 0 200 200" xml:space="preserve">
<path d="M86.045,144.657c-33.974,0-61.613-27.639-61.613-61.612c0-33.974,27.639-61.613,61.613-61.613
	c33.973,0,61.612,27.639,61.612,61.613C147.657,117.019,120.019,144.657,86.045,144.657z M86.045,25.433
	c-31.768,0-57.613,25.845-57.613,57.613c0,31.767,25.845,57.612,57.613,57.612c31.767,0,57.612-25.845,57.612-57.612
	C143.657,51.278,117.812,25.433,86.045,25.433z"/>
<path d="M175.75,174.75c-0.512,0-1.023-0.195-1.414-0.586l-47.118-47.118c-0.781-0.781-0.781-2.047,0-2.828s2.047-0.781,2.828,0
	l47.118,47.118c0.781,0.781,0.781,2.047,0,2.828C176.773,174.555,176.262,174.75,175.75,174.75z"/>
<path d="M133.302,85.045c-1.104,0-2-0.896-2-2c0-24.955-20.302-45.257-45.256-45.257c-1.104,0-2-0.896-2-2s0.896-2,2-2
	c27.16,0,49.256,22.097,49.256,49.257C135.302,84.15,134.406,85.045,133.302,85.045z"/>
</svg>
