<?xml version="1.0" encoding="utf-8"?>
<!-- Generator: Adobe Illustrator 16.0.0, SVG Export Plug-In . SVG Version: 6.00 Build 0)  -->
<!DOCTYPE svg PUBLIC "-//W3C//DTD SVG 1.1//EN" "http://www.w3.org/Graphics/SVG/1.1/DTD/svg11.dtd">
<svg version="1.1" id="Layer_1" xmlns="http://www.w3.org/2000/svg" xmlns:xlink="http://www.w3.org/1999/xlink" x="0px" y="0px"
	 width="200px" height="200px" viewBox="0 0 200 200" enable-background="new 0 0 200 200" xml:space="preserve">
<path d="M100,141.443c-35.252,0-82.534-29.103-94.951-41.52C4.804,99.679,4.667,99.346,4.667,99s0.138-0.679,0.383-0.923
	C17.466,85.66,64.748,56.557,100,56.557c35.253,0,82.534,29.103,94.951,41.52c0.244,0.245,0.383,0.577,0.383,0.923
	s-0.139,0.679-0.383,0.923C182.534,112.341,135.253,141.443,100,141.443z M7.852,99c13.495,12.646,58.455,39.831,92.148,39.831
	S178.653,111.646,192.149,99C178.653,86.354,133.693,59.169,100,59.169S21.347,86.354,7.852,99z"/>
<path d="M100,123.812c-13.682,0-24.813-11.131-24.813-24.812S86.318,74.187,100,74.187S124.812,85.318,124.812,99
	S113.682,123.812,100,123.812z M100,76.799c-12.242,0-22.201,9.959-22.201,22.201c0,12.242,9.959,22.201,22.201,22.201
	c12.242,0,22.201-9.959,22.201-22.201C122.201,86.758,112.242,76.799,100,76.799z"/>
</svg>
